<svg xmlns="http://www.w3.org/2000/svg" xmlns:xlink="http://www.w3.org/1999/xlink" width="177.458" height="57.826" viewBox="0 0 177.458 57.826">
  <defs>
    <clipPath id="clip-path">
      <rect id="Rectangle_15" data-name="Rectangle 15" width="177.458" height="57.826" fill="none"/>
    </clipPath>
  </defs>
  <g id="Group_5" data-name="Group 5" transform="translate(0 0)">
    <g id="Group_4" data-name="Group 4" transform="translate(0 0)" clip-path="url(#clip-path)">
      <path id="Path_1" data-name="Path 1" d="M45.277,0H3.424A3.424,3.424,0,0,0,0,3.424V33.479a24.348,24.348,0,0,0,48.7,0L48.7,3.424A3.424,3.424,0,0,0,45.277,0M17.891,28.957A11.033,11.033,0,1,1,28.922,17.924,11.033,11.033,0,0,1,17.891,28.957" transform="translate(0 0)" fill="#fff"/>
      <path id="Path_2" data-name="Path 2" d="M42.5,23.842H46.72V5.978h5.224V2.239H37.2V5.978h5.3Z" transform="translate(17.004 1.023)" fill="#fff"/>
      <path id="Path_3" data-name="Path 3" d="M84.92,23.92A10.645,10.645,0,0,0,95.334,13.08a10.422,10.422,0,1,0-20.828,0A10.645,10.645,0,0,0,84.92,23.92m0-17.471a6.435,6.435,0,0,1,6.2,6.631,6.218,6.218,0,1,1-12.409,0,6.435,6.435,0,0,1,6.2-6.631" transform="translate(34.058 1.024)" fill="#fff"/>
      <rect id="Rectangle_13" data-name="Rectangle 13" width="4.071" height="15.533" transform="translate(89.897 35.252)" fill="#fff"/>
      <path id="Path_4" data-name="Path 4" d="M63.865,20a2.467,2.467,0,1,0,2.467,2.467A2.469,2.469,0,0,0,63.865,20" transform="translate(28.066 9.145)" fill="#fff"/>
      <rect id="Rectangle_14" data-name="Rectangle 14" width="4.071" height="15.533" transform="translate(148.669 35.252)" fill="#fff"/>
      <path id="Path_5" data-name="Path 5" d="M104.2,20a2.467,2.467,0,1,0,2.467,2.467A2.469,2.469,0,0,0,104.2,20" transform="translate(46.504 9.145)" fill="#fff"/>
      <path id="Path_6" data-name="Path 6" d="M97.6,27.817a1.99,1.99,0,0,1,1.257-.353,3.32,3.32,0,0,1,1.872.555,3.057,3.057,0,0,1,1.183,1.483l.1.258,3.182-1.5-.082-.22a5.806,5.806,0,0,0-2.39-2.957,7.106,7.106,0,0,0-3.835-1.045,7.006,7.006,0,0,0-2.951.595A4.892,4.892,0,0,0,93.9,26.318a4.407,4.407,0,0,0-.737,2.525,4.163,4.163,0,0,0,1.027,2.8,6.05,6.05,0,0,0,2.967,1.74l2.419.678a4.679,4.679,0,0,1,.813.322,1.72,1.72,0,0,1,.545.424.876.876,0,0,1,.175.562,1.1,1.1,0,0,1-.472.94,2.259,2.259,0,0,1-1.4.383,3.67,3.67,0,0,1-2.127-.662,4.47,4.47,0,0,1-1.505-1.856l-.108-.235-3.1,1.488.073.213a6.013,6.013,0,0,0,2.512,3.194,7.731,7.731,0,0,0,4.259,1.17,7.3,7.3,0,0,0,3.045-.595,4.972,4.972,0,0,0,2.062-1.679,4.3,4.3,0,0,0,.753-2.5A4.078,4.078,0,0,0,104.04,32.4a6.326,6.326,0,0,0-2.932-1.7l-2.363-.707a6.611,6.611,0,0,1-.879-.341,1.365,1.365,0,0,1-.517-.409.93.93,0,0,1-.169-.56,1.028,1.028,0,0,1,.421-.861" transform="translate(42.236 10.992)" fill="#fff"/>
      <path id="Path_7" data-name="Path 7" d="M60.951,10.881a5.274,5.274,0,0,0-2.059-2.057,6.074,6.074,0,0,0-3.01-.737A5.608,5.608,0,0,0,53,8.811a3.88,3.88,0,0,0-.986.876V2.239H48.093v21.6h3.928V14.929a4.056,4.056,0,0,1,.367-1.786A2.646,2.646,0,0,1,53.4,12.091a3.155,3.155,0,0,1,2.99,0,2.692,2.692,0,0,1,1,1.053,3.423,3.423,0,0,1,.366,1.631v9.062h3.928V13.921a6.159,6.159,0,0,0-.736-3.04" transform="translate(21.984 1.024)" fill="#fff"/>
      <path id="Path_8" data-name="Path 8" d="M52.071,32.848a4.794,4.794,0,1,1-9.588,0V20H38.269V32.848a9.008,9.008,0,0,0,18.016,0V20H52.071Z" transform="translate(17.494 9.145)" fill="#fff"/>
      <path id="Path_9" data-name="Path 9" d="M73.26,14.6a5.073,5.073,0,0,0,.057-.857,8.077,8.077,0,0,0-.506-2.879A7.383,7.383,0,0,0,71.348,8.48a6.828,6.828,0,0,0-2.327-1.636,7.955,7.955,0,0,0-3.163-.592A7.384,7.384,0,0,0,61.989,7.3a7.576,7.576,0,0,0-2.729,2.827,8.273,8.273,0,0,0-1,4.086,8.416,8.416,0,0,0,.982,4.042A7.477,7.477,0,0,0,62,21.148a7.877,7.877,0,0,0,4.132,1.07,8.4,8.4,0,0,0,2.878-.478,7.063,7.063,0,0,0,2.267-1.326,5.262,5.262,0,0,0,1.419-1.96l.058-.141-3.193-1.568-.079.134a3.62,3.62,0,0,1-1.3,1.345,3.863,3.863,0,0,1-2.021.5,3.983,3.983,0,0,1-2.1-.554A3.479,3.479,0,0,1,62.69,16.6a4.21,4.21,0,0,1-.332-1.186h10.7a2.237,2.237,0,0,0,.207-.822m-9.321-4.5a3.5,3.5,0,0,1,1.919-.539,3.336,3.336,0,0,1,1.931.549,3.093,3.093,0,0,1,1.151,1.491,3.359,3.359,0,0,1,.181.743H62.454a3.843,3.843,0,0,1,.211-.667,3.333,3.333,0,0,1,1.274-1.577" transform="translate(26.633 2.858)" fill="#fff"/>
      <path id="Path_10" data-name="Path 10" d="M116.123,14.6a5.074,5.074,0,0,0,.057-.857,8.109,8.109,0,0,0-.506-2.879A7.361,7.361,0,0,0,114.21,8.48a6.814,6.814,0,0,0-2.327-1.636,7.942,7.942,0,0,0-3.162-.592A7.384,7.384,0,0,0,104.852,7.3a7.554,7.554,0,0,0-2.729,2.827,8.258,8.258,0,0,0-1,4.086,8.432,8.432,0,0,0,.982,4.042,7.492,7.492,0,0,0,2.758,2.9A7.875,7.875,0,0,0,109,22.218a8.406,8.406,0,0,0,2.879-.478,7.063,7.063,0,0,0,2.267-1.326,5.278,5.278,0,0,0,1.419-1.96l.058-.141-3.194-1.568-.077.134a3.621,3.621,0,0,1-1.3,1.345,3.866,3.866,0,0,1-2.021.5,3.983,3.983,0,0,1-2.1-.554,3.479,3.479,0,0,1-1.368-1.566,4.21,4.21,0,0,1-.332-1.186h10.7a2.28,2.28,0,0,0,.207-.822m-9.323-4.5a3.5,3.5,0,0,1,1.92-.539,3.34,3.34,0,0,1,1.931.549,3.093,3.093,0,0,1,1.151,1.491,3.28,3.28,0,0,1,.179.743h-6.666a3.973,3.973,0,0,1,.213-.667,3.339,3.339,0,0,1,1.272-1.577" transform="translate(46.226 2.858)" fill="#fff"/>
      <path id="Path_11" data-name="Path 11" d="M89.909,32.387a5.065,5.065,0,0,0,.057-.857,8.11,8.11,0,0,0-.506-2.879A7.361,7.361,0,0,0,88,26.272a6.814,6.814,0,0,0-2.327-1.636,7.942,7.942,0,0,0-3.162-.592,7.384,7.384,0,0,0-3.869,1.043,7.554,7.554,0,0,0-2.729,2.827,8.258,8.258,0,0,0-1,4.086,8.432,8.432,0,0,0,.982,4.042,7.492,7.492,0,0,0,2.758,2.9,7.875,7.875,0,0,0,4.131,1.07,8.406,8.406,0,0,0,2.879-.478,7.064,7.064,0,0,0,2.267-1.326,5.278,5.278,0,0,0,1.419-1.96l.058-.141-3.194-1.568-.077.134a3.62,3.62,0,0,1-1.3,1.345,3.866,3.866,0,0,1-2.021.5,3.983,3.983,0,0,1-2.1-.554A3.479,3.479,0,0,1,79.339,34.4a4.21,4.21,0,0,1-.332-1.186H89.7a2.279,2.279,0,0,0,.207-.822m-9.323-4.5a3.5,3.5,0,0,1,1.92-.539,3.34,3.34,0,0,1,1.931.549,3.093,3.093,0,0,1,1.151,1.491,3.279,3.279,0,0,1,.179.743H79.1a4.108,4.108,0,0,1,.211-.667,3.35,3.35,0,0,1,1.274-1.577" transform="translate(34.243 10.991)" fill="#fff"/>
      <path id="Path_12" data-name="Path 12" d="M113.189,37.5a3.29,3.29,0,0,1-1.432-.271,1.661,1.661,0,0,1-.784-.756,2.753,2.753,0,0,1-.256-1.244V28.561h2.46v-3.2h-2.46V21.64H106.9v3.72h-1.23v3.2H106.9v6.863c0,1.792.252,3.2,1.243,4.192a5.687,5.687,0,0,0,4.192,1.492,8.563,8.563,0,0,0,.962-.058q.518-.057.921-.115l.138-.02V37.391l-.708.077a4.255,4.255,0,0,1-.455.028" transform="translate(48.304 9.892)" fill="#fff"/>
      <path id="Path_13" data-name="Path 13" d="M80.395,24.193h-4.43L73,33.36a3.686,3.686,0,0,0-.15.676l-.064.507-.064-.509a3.7,3.7,0,0,0-.152-.675l-2.964-9.167h-4.43l5.837,15.533h3.542Z" transform="translate(29.794 11.059)" fill="#fff"/>
      <path id="Path_14" data-name="Path 14" d="M122,24.193l-3.143,9.167a3.692,3.692,0,0,0-.152.676l-.064.507-.064-.509a3.7,3.7,0,0,0-.15-.675l-2.785-9.167h-4.011l4.025,14.358c.208.749.453,1.061.959,1.174L114.083,46.4h4.2l8.145-22.207Z" transform="translate(51.029 11.059)" fill="#fff"/>
      <path id="Path_15" data-name="Path 15" d="M115.918,7.564a1.5,1.5,0,0,0-1.582-1.1h-2.289V22h3.928V12.941a3.4,3.4,0,0,1,.367-1.631,2.646,2.646,0,0,1,1.013-1.052,3.155,3.155,0,0,1,2.99,0,2.682,2.682,0,0,1,1,1.053,3.407,3.407,0,0,1,.366,1.631V22h3.928V12.088a6.159,6.159,0,0,0-.736-3.04,5.264,5.264,0,0,0-2.059-2.057,6.074,6.074,0,0,0-3.01-.737,5.608,5.608,0,0,0-2.876.724,4.263,4.263,0,0,0-.984.806s-.026-.127-.057-.22" transform="translate(51.219 2.859)" fill="#fff"/>
      <path id="Path_16" data-name="Path 16" d="M97.99,6.252A6.521,6.521,0,0,0,93.5,7.785s-.028-.127-.058-.22a1.5,1.5,0,0,0-1.582-1.1H89.568V28.673H93.5V20.7l.01.007a5.528,5.528,0,0,0,1.271.832,7.069,7.069,0,0,0,3.053.662,7.545,7.545,0,0,0,3.962-1.055,7.632,7.632,0,0,0,2.753-2.879,8.222,8.222,0,0,0,1.011-4.038,8.04,8.04,0,0,0-1.026-4.041,7.493,7.493,0,0,0-6.54-3.936m3.047,10.236a3.847,3.847,0,0,1-1.437,1.53,4.06,4.06,0,0,1-2.116.555,3.829,3.829,0,0,1-3.471-2.085,4.809,4.809,0,0,1-.517-2.26,4.823,4.823,0,0,1,.519-2.248,3.8,3.8,0,0,1,3.469-2.1,3.916,3.916,0,0,1,3.552,2.1,4.713,4.713,0,0,1,.517,2.247,4.791,4.791,0,0,1-.517,2.26" transform="translate(40.943 2.858)" fill="#fff"/>
      <path id="Path_17" data-name="Path 17" d="M55.363,25.358a1.5,1.5,0,0,0-1.582-1.1H51.491V39.791h3.928V30.735a3.4,3.4,0,0,1,.367-1.631A2.646,2.646,0,0,1,56.8,28.052a3.155,3.155,0,0,1,2.99,0,2.682,2.682,0,0,1,1,1.054,3.406,3.406,0,0,1,.366,1.631v9.056h3.928V29.882a6.159,6.159,0,0,0-.736-3.04,5.264,5.264,0,0,0-2.059-2.057,6.074,6.074,0,0,0-3.01-.737,5.608,5.608,0,0,0-2.876.724,4.263,4.263,0,0,0-.984.806s-.026-.127-.057-.22" transform="translate(23.538 10.993)" fill="#fff"/>
      <path id="Path_18" data-name="Path 18" d="M90.041,25.581s-.028-.127-.057-.22a1.507,1.507,0,0,0-1.584-1.1H86.111v15.53h3.93V31.275a3.782,3.782,0,0,1,1.067-2.649,3.448,3.448,0,0,1,2.463-.94,5.253,5.253,0,0,1,1.505.179V24.224A2.756,2.756,0,0,0,94,24.045a5.9,5.9,0,0,0-2.135.315,5.33,5.33,0,0,0-1.824,1.221" transform="translate(39.363 10.992)" fill="#fff"/>
    </g>
  </g>
</svg>
